<svg xmlns="http://www.w3.org/2000/svg" version="1.1" viewBox="-5.0 -10.0 110.0 135.0">
 <g fill-rule="evenodd">
  <path d="m50 7.2227c-23.586 0-42.777 19.188-42.777 42.777 0 23.586 19.188 42.773 42.777 42.773s42.773-19.188 42.773-42.773-19.188-42.777-42.773-42.777zm0 87.504c-11.945 0-23.18-4.6523-31.629-13.102-8.4453-8.4492-13.102-19.68-13.102-31.629 0-11.949 4.6523-23.18 13.102-31.629 8.4492-8.4492 19.684-13.102 31.629-13.102 11.949 0 23.18 4.6523 31.629 13.102 8.4492 8.4492 13.102 19.68 13.102 31.629 0 11.949-4.6523 23.18-13.102 31.629-8.4453 8.4453-19.68 13.102-31.629 13.102z"/>
  <path d="m50 15.141c-19.219 0-34.859 15.637-34.859 34.859s15.641 34.859 34.859 34.859c19.223 0 34.859-15.637 34.859-34.859s-15.637-34.859-34.859-34.859zm0 71.672c-20.297 0-36.812-16.512-36.812-36.812 0-20.297 16.516-36.812 36.812-36.812s36.812 16.516 36.812 36.812-16.516 36.812-36.812 36.812z"/>
  <path d="m24.91 38.723c-0.14453 0-0.28906-0.03125-0.42578-0.097656-0.48438-0.23828-0.6875-0.82031-0.44922-1.3047 4.2422-8.668 12.465-14.625 21.996-15.938 0.53516-0.074218 1.0273 0.30078 1.1016 0.83594 0.074219 0.53516-0.30078 1.0273-0.83594 1.1016-8.8828 1.2227-16.555 6.7773-20.508 14.859-0.16797 0.34766-0.51562 0.54687-0.87891 0.54687zm50.184 0c-0.35938 0-0.70703-0.19922-0.875-0.54688-3.957-8.082-11.625-13.641-20.508-14.859-0.53516-0.074218-0.90625-0.56641-0.83594-1.1016 0.074219-0.53516 0.5625-0.90625 1.1016-0.83594 9.5312 1.3125 17.75 7.2695 21.996 15.938 0.23828 0.48438 0.035156 1.0703-0.44922 1.3047-0.13672 0.066406-0.28516 0.10156-0.42969 0.097656zm-43.871 32.914c-0.23438 0-0.46875-0.082031-0.65625-0.25391-6.0117-5.4688-9.457-13.262-9.457-21.383 0-1.7227 0.15234-3.4492 0.45312-5.1289 0.097656-0.53125 0.60156-0.88281 1.1328-0.78906s0.88672 0.60156 0.78906 1.1328c-0.28125 1.5664-0.42578 3.1758-0.42578 4.7852 0 7.5742 3.2148 14.84 8.8203 19.938 0.39844 0.36328 0.42578 0.98047 0.066406 1.3789-0.19141 0.21094-0.45703 0.32031-0.72266 0.32031zm37.559 0c-0.26562 0-0.53125-0.10938-0.72266-0.32031-0.36328-0.39844-0.33203-1.0156 0.066406-1.3789 5.6055-5.0977 8.8203-12.363 8.8203-19.938 0-1.6055-0.14062-3.2148-0.42187-4.7852-0.09375-0.53125 0.25781-1.0391 0.78906-1.1328 0.52734-0.09375 1.0391 0.25781 1.1328 0.78906 0.30078 1.6836 0.45313 3.4062 0.45313 5.1289 0 8.1211-3.4492 15.914-9.457 21.383-0.1875 0.17188-0.42188 0.25391-0.65625 0.25391zm-18.781 7.2578c-4.5195 0-8.8555-1.0156-12.879-3.0234-0.48047-0.24219-0.67969-0.82812-0.4375-1.3086 0.23828-0.48438 0.82422-0.67969 1.3086-0.4375 3.75 1.8711 7.7891 2.8203 12.004 2.8203 4.2188 0 8.2578-0.94922 12.008-2.8203 0.48438-0.24219 1.0703-0.042969 1.3086 0.4375s0.042969 1.0703-0.4375 1.3086c-4.0234 2.0078-8.3594 3.0234-12.879 3.0234z"/>
  <path d="m41.297 39.605h-15.074c-0.53906 0-0.97656-0.4375-0.97656-0.97656 0-0.53906 0.4375-0.97656 0.97656-0.97656h14.367l4.7969-14.766c0.16797-0.51172 0.71484-0.79297 1.2305-0.625 0.51172 0.16797 0.79297 0.71875 0.625 1.2305l-5.0156 15.441c-0.13281 0.40234-0.50391 0.67578-0.92969 0.67578zm5.4453-1.9531h6.5156l-3.2578-10.031zm7.8594 1.9531h-9.207c-0.3125 0-0.60547-0.14844-0.79297-0.40234-0.18359-0.25391-0.23437-0.57812-0.13672-0.875l4.1367-12.727c0.16797-0.51172 0.71875-0.79297 1.2305-0.625 0.058594 0.019532 0.11328 0.042969 0.16406 0.070313 0.054687-0.027344 0.10938-0.050781 0.16797-0.070313 0.51172-0.16797 1.0625 0.11328 1.2305 0.62891l4.1367 12.727c0.097656 0.29688 0.042969 0.625-0.14062 0.875-0.18359 0.25391-0.47656 0.40234-0.78906 0.40234zm19.176 0h-15.074c-0.42188 0-0.79688-0.27344-0.92969-0.67578l-5.0156-15.441c-0.16797-0.51172 0.11328-1.0625 0.625-1.2305 0.51172-0.16797 1.0625 0.11328 1.2305 0.625l4.7969 14.766h14.367c0.53906 0 0.97656 0.4375 0.97656 0.97656s-0.4375 0.97656-0.97656 0.97656zm-45.637 3.9062 8.5273 6.1953 2.0117-6.1953h-10.543zm9.043 8.7539c-0.20312 0-0.40625-0.0625-0.57422-0.1875l-10.613-7.7109c-0.4375-0.31641-0.53516-0.92578-0.21875-1.3633 0.10156-0.13672 0.22656-0.23828 0.36719-0.30469-0.011719-0.054688-0.015625-0.10547-0.015625-0.16406 0-0.53906 0.4375-0.97656 0.97656-0.97656h12.918c0.3125 0 0.60547 0.14844 0.78906 0.40234 0.1875 0.25391 0.23438 0.57812 0.13672 0.875l-2.8438 8.7539c-0.09375 0.29688-0.32812 0.53125-0.625 0.62891-0.097657 0.03125-0.19922 0.046875-0.30078 0.046875zm24.133-8.7539 2.0156 6.1953 8.5273-6.1953zm1.5 8.7539c-0.10156 0-0.20312-0.015625-0.30469-0.046875-0.29688-0.097656-0.52734-0.32812-0.625-0.62891l-2.8438-8.7539c-0.09375-0.29688-0.042969-0.62109 0.13672-0.875 0.1875-0.25391 0.47656-0.40234 0.79297-0.40234h12.918c0.53906 0 0.97656 0.4375 0.97656 0.97656 0 0.054688-0.007813 0.10938-0.015626 0.16406 0.14453 0.066406 0.26953 0.17188 0.36719 0.30469 0.31641 0.4375 0.22266 1.0469-0.21484 1.3633l-10.613 7.7109c-0.16797 0.12109-0.37109 0.1875-0.57422 0.1875zm-21.168 1.0586 8.3516 6.0664 8.3516-6.0664-3.1875-9.8125h-10.324zm8.3516 8.25c-0.20312 0-0.40234-0.0625-0.57422-0.1875l-9.5-6.9023c-0.33984-0.25-0.48828-0.6875-0.35547-1.0898l3.625-11.164c0.13281-0.40234 0.50391-0.67578 0.92969-0.67578h11.746c0.42188 0 0.79688 0.27344 0.92578 0.67578l3.6289 11.164c0.12891 0.40234-0.011719 0.84375-0.35547 1.0938l-9.5 6.9023c-0.17187 0.125-0.37109 0.1875-0.57422 0.1875zm-10.254-2.3984-3.2578 10.031 8.5312-6.1992zm-2.9375 11.98c-0.30469 0-0.60156-0.14062-0.79297-0.40234-0.11328-0.15234-0.17188-0.32812-0.18359-0.5-0.21875 0.10938-0.47656 0.13281-0.73047 0.050782-0.51172-0.16797-0.79297-0.71875-0.62891-1.2305l3.8281-11.781c0.097657-0.29688 0.32812-0.53125 0.625-0.625 0.29688-0.097657 0.62109-0.046875 0.875 0.13672l7.4492 5.4102c0.25391 0.18359 0.40234 0.47656 0.40234 0.78906s-0.14844 0.60547-0.40234 0.78906l-9.8711 7.1719c-0.17188 0.125-0.375 0.1875-0.57031 0.1875zm18.168-8.1484 8.5312 6.1992-3.2578-10.031zm8.207 8.1484c-0.19922 0-0.39844-0.058594-0.57422-0.1875l-9.8711-7.1719c-0.25-0.18359-0.40234-0.47656-0.40234-0.78906s0.15234-0.60547 0.40234-0.78906l7.4492-5.4102c0.25391-0.18359 0.57812-0.23438 0.875-0.13672s0.52734 0.32812 0.625 0.625l3.8281 11.781c0.16797 0.51172-0.11328 1.0625-0.62891 1.2305-0.25 0.082031-0.51172 0.054687-0.73438-0.050782-0.011719 0.17578-0.074219 0.34766-0.18359 0.5-0.19141 0.26172-0.48828 0.40234-0.79297 0.40234zm-32.145 0.3125c-0.10156 0-0.19922-0.015625-0.29687-0.046875-0.51563-0.16406-0.79688-0.71484-0.63281-1.2266l4.6602-14.641-12.871-9.5039c-0.43359-0.32031-0.52734-0.92969-0.20703-1.3672 0.32031-0.43359 0.93359-0.52734 1.3633-0.20703l13.438 9.918c0.33594 0.25 0.47656 0.68359 0.34766 1.082l-4.8711 15.309c-0.13281 0.41406-0.51562 0.67969-0.92969 0.67969zm37.914 0c-0.41406 0-0.79688-0.26562-0.92969-0.67969l-4.875-15.309c-0.125-0.39844 0.015624-0.83203 0.35156-1.082l13.438-9.918c0.43359-0.32031 1.0469-0.22656 1.3633 0.20703 0.32422 0.43359 0.22656 1.0469-0.20703 1.3672l-12.875 9.5039 4.6641 14.641c0.16406 0.51562-0.12109 1.0625-0.63672 1.2266-0.097656 0.03125-0.19922 0.046875-0.29688 0.046875zm-6.8672 3.707c-0.19922 0-0.39844-0.058593-0.57031-0.1875l-11.516-8.3672-11.516 8.3672c-0.4375 0.31641-1.0469 0.21875-1.3633-0.21484-0.31641-0.4375-0.22266-1.0469 0.21484-1.3633l12.09-8.7852c0.33984-0.25 0.80469-0.25 1.1484 0l12.09 8.7852c0.43359 0.31641 0.53125 0.92969 0.21484 1.3633-0.19141 0.26172-0.48828 0.40234-0.79297 0.40234z"/>
  <path d="m76.539 38.438c-1.582 0-2.8711 1.2891-2.8711 2.8711 0 1.582 1.2891 2.8711 2.8711 2.8711 1.5859 0 2.8711-1.2891 2.8711-2.8711 0-1.582-1.2891-2.8711-2.8711-2.8711zm0 7.6953c-2.6602 0-4.8242-2.1641-4.8242-4.8242s2.1641-4.8242 4.8242-4.8242c2.6602 0 4.8242 2.1641 4.8242 4.8242s-2.1641 4.8242-4.8242 4.8242z"/>
  <path d="m50 19.211c-1.582 0-2.8711 1.2891-2.8711 2.8711s1.2891 2.8711 2.8711 2.8711c1.5859 0 2.8711-1.2891 2.8711-2.8711s-1.2891-2.8711-2.8711-2.8711zm0 7.6953c-2.6602 0-4.8242-2.1641-4.8242-4.8242 0-2.6602 2.1641-4.8242 4.8242-4.8242s4.8242 2.1641 4.8242 4.8242c0 2.6602-2.1641 4.8242-4.8242 4.8242z"/>
  <path d="m23.461 38.438c-1.582 0-2.8711 1.2891-2.8711 2.8711 0 1.582 1.2891 2.8711 2.8711 2.8711 1.5859 0 2.8711-1.2891 2.8711-2.8711 0-1.582-1.2891-2.8711-2.8711-2.8711zm0 7.6953c-2.6602 0-4.8242-2.1641-4.8242-4.8242s2.1641-4.8242 4.8242-4.8242c2.6602 0 4.8242 2.1641 4.8242 4.8242s-2.1641 4.8242-4.8242 4.8242z"/>
  <path d="m65.762 70.176c-1.582 0-2.875 1.2891-2.875 2.8711s1.2891 2.8711 2.8711 2.8711c1.582 0 2.8711-1.2891 2.8711-2.8711s-1.2891-2.8711-2.8711-2.8711zm0 7.6953c-2.6602 0-4.8242-2.1641-4.8242-4.8242s2.1641-4.8242 4.8242-4.8242c2.6602 0 4.8242 2.1641 4.8242 4.8242s-2.1641 4.8242-4.8242 4.8242z"/>
  <path d="m34.242 70.176c-1.5859 0-2.8711 1.2891-2.8711 2.8711s1.2891 2.8711 2.8711 2.8711c1.582 0 2.8711-1.2891 2.8711-2.8711s-1.2891-2.8711-2.8711-2.8711zm0 7.6953c-2.6602 0-4.8242-2.1641-4.8242-4.8242s2.1641-4.8242 4.8242-4.8242c2.6602 0 4.8242 2.1641 4.8242 4.8242s-2.1641 4.8242-4.8242 4.8242z"/>
  <path d="m50.688 11.184h-1.375c-0.53906 0-0.97656-0.4375-0.97656-0.97656 0-0.53906 0.43359-0.97656 0.97656-0.97656h1.375c0.53906 0 0.97656 0.4375 0.97656 0.97656 0 0.53906-0.4375 0.97656-0.97656 0.97656z"/>
  <path d="m61 12.723c-0.082031 0-0.16797-0.011718-0.25391-0.035156l-1.3281-0.35547c-0.51953-0.14062-0.83203-0.67578-0.69141-1.1953 0.13672-0.51953 0.67188-0.83203 1.1953-0.69141l1.3281 0.35547c0.51953 0.14062 0.83203 0.67578 0.69141 1.1953-0.11719 0.4375-0.51172 0.72266-0.94141 0.72266z"/>
  <path d="m70.559 16.875c-0.16797 0-0.33203-0.042969-0.48828-0.12891l-1.1914-0.6875c-0.46875-0.26953-0.62891-0.86719-0.35938-1.332 0.26953-0.46875 0.86719-0.62891 1.3359-0.35937l1.1914 0.6875c0.46875 0.26953 0.625 0.86719 0.35938 1.3359-0.17969 0.3125-0.51172 0.48828-0.84766 0.48828z"/>
  <path d="m78.719 23.363c-0.25 0-0.5-0.09375-0.69141-0.28516l-0.96875-0.97266c-0.38281-0.38281-0.38281-1 0-1.3828 0.37891-0.38281 1-0.38281 1.3828 0l0.97266 0.97266c0.38281 0.38281 0.38281 1 0 1.3828-0.19141 0.19141-0.44141 0.28516-0.69141 0.28516z"/>
  <path d="m84.922 31.742c-0.33984 0-0.66406-0.17578-0.84766-0.48828l-0.6875-1.1914c-0.26953-0.46875-0.10938-1.0625 0.35938-1.3359 0.46484-0.26953 1.0625-0.10937 1.332 0.35547l0.6875 1.1914c0.26953 0.46875 0.10938 1.0664-0.35938 1.3359-0.15234 0.089844-0.32031 0.13281-0.48438 0.13281z"/>
  <path d="m88.742 41.438c-0.42969 0-0.82422-0.28906-0.94141-0.72266l-0.35547-1.3281c-0.14062-0.51953 0.16797-1.0547 0.6875-1.1953 0.52344-0.14062 1.0586 0.16797 1.1953 0.69141l0.35547 1.3281c0.14062 0.51953-0.16797 1.0547-0.69141 1.1953-0.085938 0.023438-0.17188 0.035156-0.25391 0.03125z"/>
  <path d="m89.93 51.797c-0.53906 0-0.97656-0.4375-0.97656-0.97656v-1.375c0-0.53906 0.4375-0.97656 0.97656-0.97656 0.53906 0 0.97656 0.4375 0.97656 0.97656v1.375c0 0.53906-0.4375 0.97656-0.97656 0.97656z"/>
  <path d="m88.391 62.105c-0.082031 0-0.16797-0.011719-0.25391-0.035157-0.51953-0.14062-0.82812-0.67578-0.69141-1.1953l0.35547-1.3281c0.14062-0.51953 0.67578-0.82812 1.1953-0.69141 0.51953 0.14062 0.83203 0.67578 0.69141 1.1953l-0.35547 1.3281c-0.11719 0.4375-0.51172 0.72266-0.94141 0.72266z"/>
  <path d="m84.234 71.668c-0.16406 0-0.33594-0.042969-0.48828-0.13281-0.46875-0.26953-0.62891-0.86719-0.35938-1.3359l0.6875-1.1914c0.26953-0.46875 0.86719-0.625 1.332-0.35547 0.46875 0.26953 0.62891 0.86719 0.35938 1.3359l-0.6875 1.1914c-0.17969 0.3125-0.50781 0.48828-0.84766 0.48828z"/>
  <path d="m77.746 79.828c-0.25 0-0.5-0.09375-0.69141-0.28516-0.38281-0.38281-0.38281-1 0-1.3828l0.97266-0.97266c0.38281-0.38281 1-0.38281 1.3828 0 0.38281 0.38281 0.38281 1 0 1.3828l-0.96875 0.97266c-0.19141 0.19141-0.44141 0.28516-0.69141 0.28516z"/>
  <path d="m69.367 86.027c-0.33594 0-0.66406-0.17578-0.84766-0.48828-0.26953-0.46875-0.10938-1.0625 0.35938-1.3359l1.1914-0.6875c0.46875-0.26953 1.0625-0.10938 1.3359 0.35938 0.26953 0.46875 0.10938 1.0625-0.35938 1.3359l-1.1914 0.6875c-0.15234 0.089843-0.32031 0.13281-0.48828 0.13281z"/>
  <path d="m59.672 89.852c-0.42969 0-0.82812-0.28516-0.94141-0.72266-0.14062-0.51953 0.16797-1.0547 0.69141-1.1953l1.3281-0.35547c0.51953-0.14062 1.0547 0.16797 1.1953 0.69141 0.14063 0.51953-0.16797 1.0547-0.69141 1.1953l-1.3281 0.35547c-0.082031 0.023438-0.16797 0.03125-0.25 0.03125z"/>
  <path d="m50.688 91.035h-1.375c-0.53906 0-0.97656-0.4375-0.97656-0.97656 0-0.53906 0.43359-0.97656 0.97656-0.97656h1.375c0.53906 0 0.97656 0.4375 0.97656 0.97656 0 0.53906-0.4375 0.97656-0.97656 0.97656z"/>
  <path d="m40.332 89.852c-0.085937 0-0.16797-0.011718-0.25391-0.03125l-1.3242-0.35547c-0.51953-0.14062-0.83203-0.67578-0.69141-1.1953s0.67578-0.83203 1.1953-0.69141l1.3281 0.35547c0.51953 0.14062 0.82812 0.67578 0.6875 1.1953-0.11719 0.4375-0.51172 0.72266-0.94141 0.72266z"/>
  <path d="m30.633 86.027c-0.16406 0-0.33594-0.042969-0.48828-0.12891l-1.1914-0.6875c-0.46875-0.26953-0.62891-0.86719-0.35938-1.332 0.26953-0.46875 0.86719-0.62891 1.3359-0.35938l1.1914 0.6875c0.46484 0.26953 0.625 0.86719 0.35547 1.332-0.17969 0.3125-0.50781 0.48828-0.84766 0.48828z"/>
  <path d="m22.254 79.828c-0.25 0-0.5-0.09375-0.69141-0.28516l-0.96875-0.97266c-0.38281-0.38281-0.38281-1 0-1.3828 0.37891-0.38281 1-0.38281 1.3789 0l0.97266 0.97266c0.38281 0.38281 0.38281 1 0 1.3828-0.19141 0.19141-0.44141 0.28516-0.69141 0.28516z"/>
  <path d="m15.766 71.668c-0.33594 0-0.66406-0.17578-0.84766-0.48828l-0.68359-1.1914c-0.26953-0.46875-0.10938-1.0625 0.35547-1.3359 0.46875-0.26953 1.0664-0.10938 1.3359 0.35938l0.6875 1.1914c0.26953 0.46875 0.10938 1.0664-0.35938 1.3359-0.15234 0.089844-0.32031 0.12891-0.48828 0.12891z"/>
  <path d="m11.613 62.105c-0.42969 0-0.82812-0.28906-0.94531-0.72266l-0.35547-1.3281c-0.14062-0.51953 0.16797-1.0547 0.6875-1.1953 0.52344-0.14062 1.0547 0.16797 1.1953 0.69141l0.35547 1.3281c0.13672 0.51953-0.17188 1.0547-0.69141 1.1953-0.082031 0.023437-0.16797 0.035156-0.25 0.035156z"/>
  <path d="m10.074 51.797c-0.53906 0-0.97656-0.4375-0.97656-0.97656v-1.375c0-0.53906 0.4375-0.97656 0.97656-0.97656 0.53906 0 0.97656 0.4375 0.97656 0.97656v1.375c0 0.53906-0.4375 0.97656-0.97656 0.97656z"/>
  <path d="m11.258 41.438c-0.082031 0-0.16797-0.011719-0.25391-0.035156-0.51953-0.14062-0.82812-0.67578-0.69141-1.1953l0.35547-1.3281c0.14062-0.51953 0.67578-0.82812 1.1953-0.69141 0.51953 0.14062 0.83203 0.67578 0.69141 1.1953l-0.35547 1.3281c-0.11719 0.4375-0.51172 0.72266-0.94531 0.72266z"/>
  <path d="m15.078 31.742c-0.16797 0-0.33203-0.042969-0.48828-0.13281-0.46484-0.26953-0.625-0.86719-0.35547-1.3359l0.6875-1.1914c0.26953-0.46875 0.86719-0.62891 1.3359-0.35547 0.46875 0.26953 0.625 0.86719 0.35938 1.3359l-0.6875 1.1914c-0.17969 0.3125-0.50781 0.48828-0.84766 0.48828z"/>
  <path d="m21.285 23.363c-0.25 0-0.5-0.09375-0.69141-0.28516-0.38281-0.38281-0.38281-1 0-1.3828l0.97266-0.97266c0.38281-0.38281 1-0.38281 1.3789 0 0.38281 0.38281 0.38281 1 0 1.3828l-0.97266 0.97266c-0.1875 0.19141-0.44141 0.28516-0.6875 0.28516z"/>
  <path d="m29.445 16.875c-0.33594 0-0.66406-0.17578-0.84766-0.48828-0.26953-0.46875-0.10938-1.0625 0.35938-1.3359l1.1914-0.6875c0.46484-0.26953 1.0625-0.10938 1.332 0.35938s0.10938 1.0625-0.35547 1.3359l-1.1875 0.6875c-0.15625 0.089844-0.32422 0.13281-0.48828 0.13281z"/>
  <path d="m39.004 12.723c-0.42969 0-0.82422-0.28906-0.94531-0.72266-0.13672-0.51953 0.17188-1.0547 0.69141-1.1953l1.3281-0.35547c0.51953-0.14062 1.0547 0.16797 1.1953 0.69141 0.14062 0.51953-0.16797 1.0547-0.69141 1.1953l-1.3281 0.35547c-0.082031 0.023438-0.16797 0.035156-0.25391 0.035156z"/>
  <path d="m50 55.094c-3.3086 0-6.0039-2.6914-6.0039-6.0039 0-0.53906 0.4375-0.97656 0.97656-0.97656 0.53906 0 0.97656 0.4375 0.97656 0.97656 0 2.2344 1.8164 4.0508 4.0508 4.0508s4.0469-1.8164 4.0469-4.0508c0-0.53906 0.4375-0.97656 0.97656-0.97656 0.54297 0 0.97656 0.4375 0.97656 0.97656 0 3.3086-2.6914 6.0039-6 6.0039z"/>
  <path d="m50 51.801c-1.4961 0-2.7109-1.2148-2.7109-2.7109 0-0.53906 0.4375-0.97656 0.97656-0.97656s0.97656 0.4375 0.97656 0.97656c0 0.41797 0.33984 0.75781 0.75781 0.75781s0.75781-0.33984 0.75781-0.75781c0-0.53906 0.4375-0.97656 0.97656-0.97656s0.97656 0.4375 0.97656 0.97656c0 1.4961-1.2188 2.7109-2.7109 2.7109z"/>
  <path d="m35.441 36.445c-1.4336 0-2.8633-0.54297-3.9492-1.6328-0.38281-0.38281-0.38281-1 0-1.3828 0.37891-0.38281 1-0.38281 1.3789 0 1.418 1.418 3.7266 1.418 5.1406 0 1.418-1.418 1.418-3.7227 0-5.1406-0.37891-0.38281-0.37891-1 0-1.3828 0.38281-0.38281 1-0.38281 1.3828 0 2.1797 2.1797 2.1797 5.7227 0 7.9023-1.0898 1.0898-2.5195 1.6328-3.9492 1.6328z"/>
  <path d="m35.441 33.43c-0.65625 0-1.3164-0.25-1.8164-0.75-0.37891-0.38281-0.37891-1 0-1.3828 0.38281-0.38281 1-0.38281 1.3828 0 0.24219 0.23828 0.62891 0.23828 0.87109 0 0.11719-0.11719 0.17969-0.26953 0.17969-0.43359 0-0.16406-0.0625-0.32031-0.17969-0.43359-0.38281-0.38281-0.38281-1 0-1.3828 0.37891-0.38281 1-0.38281 1.3789 0 0.48828 0.48438 0.75391 1.1289 0.75391 1.8164s-0.26562 1.332-0.75391 1.8164c-0.5 0.5-1.1562 0.75-1.8164 0.75z"/>
  <path d="m64.562 36.445c-1.4336 0-2.8633-0.54297-3.9531-1.6328-2.1797-2.1797-2.1797-5.7227 0-7.9023 0.38281-0.38281 1-0.38281 1.3828 0 0.38281 0.38281 0.38281 1 0 1.3828-1.418 1.418-1.418 3.7227 0 5.1406 1.418 1.418 3.7266 1.418 5.1406 0 0.38281-0.38281 1-0.38281 1.3828 0 0.37891 0.38281 0.37891 1 0 1.3828-1.0859 1.0898-2.5195 1.6328-3.9492 1.6328z"/>
  <path d="m64.562 33.43c-0.66016 0-1.3164-0.25-1.8164-0.75-0.48438-0.48438-0.75391-1.1289-0.75391-1.8164s0.26953-1.332 0.75391-1.8164c0.38281-0.38281 1-0.38281 1.3828 0 0.38281 0.38281 0.37891 1 0 1.3828-0.11719 0.11719-0.17969 0.26953-0.17969 0.43359 0 0.16406 0.066406 0.32031 0.17969 0.43359 0.24219 0.23828 0.62891 0.23828 0.87109 0 0.37891-0.38281 1-0.38281 1.3789 0 0.38281 0.38281 0.38281 1 0 1.3828-0.5 0.5-1.1562 0.75-1.8125 0.75z"/>
  <path d="m71.977 63.375c-0.082031 0-0.16797-0.011719-0.25391-0.035156-2.9766-0.79688-4.75-3.8672-3.9492-6.8438 0.38672-1.4414 1.3086-2.6484 2.6055-3.3945 1.293-0.74609 2.8008-0.94531 4.2383-0.55859 0.51953 0.14062 0.83203 0.67578 0.69141 1.1953s-0.67578 0.83203-1.1953 0.69141c-0.9375-0.25-1.918-0.12109-2.7578 0.36328-0.83984 0.48438-1.4414 1.2695-1.6953 2.207-0.51953 1.9375 0.63672 3.9336 2.5703 4.4531 0.51953 0.14062 0.83203 0.67578 0.69141 1.1953-0.11719 0.4375-0.51172 0.72266-0.94141 0.72266z"/>
  <path d="m72.758 60.457c-0.082031 0-0.16797-0.011719-0.25391-0.035156-0.66406-0.17969-1.2148-0.60156-1.5625-1.1953-0.34375-0.59375-0.43359-1.2852-0.25781-1.9492 0.17578-0.66406 0.60156-1.2148 1.1953-1.5586s1.2891-0.43359 1.9492-0.25781c0.51953 0.14062 0.83203 0.67578 0.69141 1.1953-0.13672 0.51953-0.67188 0.83203-1.1953 0.69141-0.16016-0.042968-0.32422-0.019531-0.46484 0.0625-0.14062 0.082032-0.24609 0.21484-0.28516 0.375-0.042969 0.16016-0.019531 0.32422 0.0625 0.46875 0.082031 0.14062 0.21484 0.24219 0.375 0.28516 0.51953 0.14063 0.83203 0.67578 0.69141 1.1953-0.11328 0.4375-0.51172 0.72266-0.94141 0.72266z"/>
  <path d="m28.027 63.375c-0.42969 0-0.82422-0.28906-0.94141-0.72266-0.14063-0.51953 0.16797-1.0547 0.69141-1.1953 1.9375-0.51953 3.0898-2.5156 2.5703-4.4531-0.51953-1.9375-2.5156-3.0898-4.4531-2.5703-0.51953 0.14062-1.0547-0.16797-1.1953-0.69141-0.13672-0.51953 0.16797-1.0547 0.69141-1.1953 2.9766-0.79688 6.0469 0.97656 6.8438 3.9531s-0.97656 6.0469-3.9531 6.8438c-0.082031 0.023438-0.16797 0.035156-0.25391 0.035156z"/>
  <path d="m27.246 60.457c-0.42969 0-0.82812-0.28906-0.94531-0.72266-0.13672-0.51953 0.17188-1.0547 0.69141-1.1953 0.16016-0.042968 0.28906-0.14453 0.37109-0.28516s0.10547-0.30859 0.0625-0.46484c-0.085937-0.32812-0.42578-0.52344-0.75391-0.43359-0.51953 0.14062-1.0547-0.16797-1.1953-0.69141-0.13672-0.51953 0.17188-1.0547 0.69141-1.1953 1.3672-0.36719 2.7773 0.44922 3.1445 1.8164 0.17578 0.66406 0.085938 1.3555-0.25781 1.9492s-0.89844 1.0195-1.5586 1.1953c-0.082032 0.023437-0.16797 0.035156-0.25 0.035156z"/>
 </g>
</svg>